<?xml version="1.0" encoding="UTF-8" standalone="no"?>
<!-- Created with Inkscape (http://www.inkscape.org/) -->

<svg
   version="1.1"
   id="svg1"
   width="468"
   height="432.66666"
   viewBox="0 0 468 432.66666"
   sodipodi:docname="ea.svg"
   inkscape:version="1.4.3 (0d15f75, 2025-12-25)"
   xmlns:inkscape="http://www.inkscape.org/namespaces/inkscape"
   xmlns:sodipodi="http://sodipodi.sourceforge.net/DTD/sodipodi-0.dtd"
   xmlns="http://www.w3.org/2000/svg"
   xmlns:svg="http://www.w3.org/2000/svg">
  <defs
     id="defs1" />
  <sodipodi:namedview
     id="namedview1"
     pagecolor="#ffffff"
     bordercolor="#000000"
     borderopacity="0.25"
     inkscape:showpageshadow="2"
     inkscape:pageopacity="0.0"
     inkscape:pagecheckerboard="0"
     inkscape:deskcolor="#d1d1d1"
     inkscape:zoom="0.49560124"
     inkscape:cx="145.27809"
     inkscape:cy="392.45261"
     inkscape:window-width="1365"
     inkscape:window-height="994"
     inkscape:window-x="1145"
     inkscape:window-y="232"
     inkscape:window-maximized="0"
     inkscape:current-layer="g1" />
  <g
     inkscape:groupmode="layer"
     inkscape:label="Image"
     id="g1">
    <path
       style="fill:#000000"
       d="m 208.83132,336.48969 -21.25464,0.31 -6,-1.21262 -6,-1.21263 -4.66667,-1.05885 -4.66667,-1.05884 -9,-3.40519 -9,-3.40518 -3,-1.72885 -3,-1.72884 -4.86267,-3.33514 -4.86267,-3.33513 -3.85807,-5.39645 -3.85807,-5.39645 -3.4561,-6.0969 -3.4561,-6.09689 -2.0634,-4.55073 -2.0634,-4.55074 -1.62991,-7.6857 -1.62992,-7.68571 -1.06633,-8 -1.06634,-8 0.085,-11.10781 0.085,-11.10781 1.02052,-10.17633 1.02053,-10.17634 1.38704,-7.44267 1.38704,-7.44268 -4.37343,-10.70312 -4.37343,-10.70311 -1.97702,-7.23673 -1.97702,-7.23673 -0.976719,-2.74061 -0.97672,-2.74062 -2.10921,-9.25938 -2.10921,-9.25939 -1.37148,-5.32299 -1.37149,-5.32299 0.37476,-7.67701 0.37475,-7.67701 0.43744,-1.43384 0.43744,-1.43383 1.76578,-0.33756 1.76579,-0.33755 1.12037,0.59961 1.12037,0.5996 0.80804,2.50512 0.808049,2.50512 2.87704,5.87576 2.87704,5.87576 1.02592,3.52905 1.02593,3.52904 1.69758,7.92853 1.69757,7.92852 2.61893,8.66667 2.61893,8.66667 0.71824,2.83333 0.71824,2.83333 h 0.54854 0.54854 l 2.02623,-4.83333 2.02623,-4.83333 3.68308,-10.33334 3.68308,-10.33333 3.46285,-8 3.46286,-8 1.27187,-3.66667 1.27187,-3.66666 2.67688,-5.24345 2.67689,-5.24346 4.00147,-5.256537 4.00147,-5.25655 h 0.50913 0.50913 l 5.92731,-5.33828 5.92731,-5.33828 2.77846,-1.34503 2.77846,-1.34503 3.71894,-0.78005 3.71894,-0.78006 7.22559,1.08553 7.22559,1.08553 3.71413,1.38964 3.71413,1.38963 2.92981,1.94409 2.92982,1.94408 2.72469,2.3364 2.72469,2.3364 3.94197,5.86358 3.94198,5.863567 2.58614,7.67747 2.58614,7.67747 0.28956,10 0.28956,10 -1.66469,13.0446 -1.66469,13.0446 -3.28737,8.28873 -3.28738,8.28874 -1.13724,3.48 -1.13723,3.48 -7.18715,10.85333 -7.18714,10.85334 -5.87396,5.17516 -5.87395,5.17517 -7.39197,3.66047 -7.39196,3.66047 -1,0.005 -1,0.005 -6.33334,1.98512 -6.33333,1.98512 -6.06071,0.007 -6.06072,0.007 -3.04986,-0.91787 -3.04986,-0.91787 -3.88942,-3.03003 -3.88943,-3.03003 -4,-4.66877 -4,-4.66877 -0.42448,2.80843 -0.42449,2.80843 -0.85618,10.66031 -0.85618,10.66032 1.1485,10.64792 1.14849,10.64793 1.34814,6.66667 1.34814,6.66666 0.98807,2.66667 0.98806,2.66667 4.05647,7.29206 4.05647,7.29206 2.92129,4.06083 2.92129,4.06082 5.51166,3.47138 5.51165,3.47137 8.1083,2.9819 8.1083,2.9819 5.86492,1.32296 5.86491,1.32295 4.6803,0.78364 4.6803,0.78363 17.98637,-0.32036 17.98637,-0.32036 11,-3.72315 11,-3.72315 5.12775,-2.37145 5.12776,-2.37145 4.33404,-2.9672 4.33404,-2.9672 3.30239,-1.67345 3.30239,-1.67345 4.94517,-3.97818 4.94516,-3.97818 5.66614,-6.21229 5.66615,-6.2123 3.78398,-4.5005 3.78399,-4.50051 2.62421,-5.2193 2.62421,-5.2193 2.09199,-3.54801 2.09198,-3.54802 -0.87568,-0.5553 -0.87567,-0.55531 -4.33334,-0.0174 -4.33333,-0.0174 -3.33333,-1.00448 -3.33334,-1.00448 -6.89937,-3.07214 -6.89937,-3.07214 -2.81928,-1.57573 -2.81929,-1.57573 -3.94801,-3.85245 -3.94801,-3.85244 -4.4075,-5.14969 -4.40751,-5.1497 -2.6839,-6.83829 -2.6839,-6.83829 -0.72699,-3.66667 -0.72698,-3.66667 0.0688,-11.46526 0.0688,-11.46526 -1.75038,-2.98678 -1.75037,-2.98679 v -4.04795 -4.04796 h 1.20861 1.2086 l 1.91315,1.9969 1.91315,1.9969 1.63941,-1.07418 1.63941,-1.07419 2.62099,0.0362 2.62099,0.0362 1.05364,0.87444 1.05364,0.87445 0.23087,-0.16667 0.23087,-0.16666 h 1.63704 1.63704 l 3.91866,3.83333 3.91866,3.83333 2.39496,4.33334 2.39495,4.33333 1.1633,3 1.1633,3 2.21938,2.19876 2.21938,2.19876 v 0.65064 0.65065 l 2.16667,3.22593 2.16666,3.22592 0.66667,1.13656 0.66667,1.13656 4.66666,1.29343 4.66667,1.29342 5.66667,0.99256 5.66666,0.99255 5.23042,0.002 5.23042,0.002 1.78309,-1.26967 1.78308,-1.26967 4.31983,-0.2671 4.31983,-0.2671 1.11704,-0.51551 1.11704,-0.51552 1.11629,1.70368 1.1163,1.70368 v 2.38324 2.38324 l -1.9,2.75357 -1.9,2.75357 -1.93738,1.04513 -1.93738,1.04513 -4.29806,2.87598 -4.29805,2.87597 -1.76457,0.63778 -1.76456,0.63778 -1.5,0.76556 -1.5,0.76557 v 0.52591 0.52591 l 2.92978,1.71696 2.92978,1.71697 4.90355,1.55914 4.90355,1.55913 5.33334,1.44106 5.33333,1.44105 4.33333,0.65849 4.33334,0.65849 6.90961,1.44668 6.90961,1.44669 1.95643,1.95643 1.95643,1.95642 -0.20632,1.08268 -0.20632,1.08268 -3.65972,0.43204 -3.65972,0.43204 -12.34021,-0.36513 -12.3402,-0.36513 -2.12669,1.09976 -2.12669,1.09975 h -1.80122 -1.80123 l -3.58773,3.83333 -3.58773,3.83334 -2.66693,2.67339 -2.66693,2.67339 0.13551,1.99328 0.1355,1.99327 -2.3748,4.66667 -2.3748,4.66666 -6.51705,7.66667 -6.51705,7.66667 -7.12509,7 -7.12508,7 -4.59579,2.88624 -4.59579,2.88624 -6.20466,3.95975 -6.20465,3.95976 -6.33195,2.95893 -6.33196,2.95894 -12.20874,4.02215 -12.20875,4.02215 z m -55.58798,-118.47242 5,-0.25172 6,-1.84139 6,-1.84138 5.33334,-2.60956 5.33333,-2.60955 4.49058,-4.28672 4.49057,-4.28671 6.00943,-9.15685 6.00942,-9.15684 v -0.61592 -0.61591 l 3.66157,-9.77627 3.66156,-9.77626 1.05566,-8.33334 1.05566,-8.33333 0.3503,-10 0.35031,-10 -2.31125,-7 -2.31124,-7 -2.75879,-4.13804 -2.75879,-4.13804 -3.09958,-2.366697 -3.09957,-2.3667 -4.06459,-1.24938 -4.06458,-1.24938 -4.06082,-0.46572 -4.06082,-0.46572 -2.40333,1.00418 -2.40333,1.00417 -4.20252,3.90118 -4.20252,3.901177 -1.3463,0.98115 -1.3463,0.98115 -2.07499,2.66667 -2.07498,2.66667 -2.17304,3.66666 -2.17304,3.66667 -1.82817,5 -1.82818,5 -3.1677,7.33333 -3.1677,7.33334 -4.16832,11.66666 -4.16832,11.66667 -2.13545,4.66667 -2.13545,4.66666 -1.22663,4 -1.22662,4 -0.78356,4.08578 -0.78356,4.08578 3.4491,6.7147 3.44911,6.71469 4.32169,4.81966 4.32169,4.81965 2.13336,1.58494 2.13336,1.58494 z m 100.70012,-44.17909 0.63322,-0.39135 v -1.524 -1.52399 l -1.33334,-1.20665 -1.33333,-1.20665 v 1.81382 1.81382 l 0.70012,1.30817 0.70011,1.30818 z m 12.63322,-1.97933 0.66666,-0.41202 v -0.66667 -0.66666 l -0.66666,0.41202 -0.66667,0.41202 v 0.66667 0.66667 z"
       id="path1" />
  </g>
</svg>
